Coordinates
version=1
nRows=14
nColumns=40
inDegrees=yes

Units are S.I. units (second, meters, Newtons, ...)
Angles are in degrees.

endheader
time	pelvis_tilt	pelvis_list	pelvis_rotation	pelvis_tx	pelvis_ty	pelvis_tz	hip_flexion_r	hip_adduction_r	hip_rotation_r	knee_angle_r	knee_angle_r_beta	ankle_angle_r	subtalar_angle_r	mtp_angle_r	hip_flexion_l	hip_adduction_l	hip_rotation_l	knee_angle_l	knee_angle_l_beta	ankle_angle_l	subtalar_angle_l	mtp_angle_l	lumbar_extension	lumbar_bending	lumbar_rotation	arm_flex_r	arm_add_r	arm_rot_r	elbow_flex_r	pro_sup_r	wrist_flex_r	wrist_dev_r	arm_flex_l	arm_add_l	arm_rot_l	elbow_flex_l	pro_sup_l	wrist_flex_l	wrist_dev_l
     40.96314286	     -1.95336378	     -5.06576316	     -0.85772961	      1.07114988	      0.93574594	      0.41387390	     31.56673322	     -4.30642004	     -5.22377072	     52.22820246	     52.22820246	     -0.25588155	    -11.62509631	      0.05038159	     13.04327332	     -6.33633287	     -7.75325072	     22.11931101	     22.11931101	     12.63211833	    -12.36990663	     -1.41055772	    -12.09691427	      5.91167090	      0.61991307	     -1.94275508	    -12.61119367	     -3.77770372	     25.43789687	     46.80690510	      0.00000000	      0.00000000	     18.76252778	    -17.51168791	     -7.48076285	     61.66945020	     46.49378275	      0.00000000	      0.00000000
     40.97628571	     -1.99562994	     -5.02252103	     -1.29470065	      1.07038184	      0.93597896	      0.41412413	     31.28844457	     -4.25833778	     -5.64043377	     48.20489575	     48.20489575	     -0.20678350	    -10.50570960	     -1.46498232	     12.46827208	     -6.32790749	     -8.22555748	     21.71561870	     21.71561870	     12.76092087	    -12.26169663	     -1.59196277	    -12.32595454	      5.88207080	      0.72684157	     -3.07971520	    -12.61725800	     -5.02560584	     25.23729159	     46.89662409	      0.00000000	      0.00000000	     18.78011905	    -17.98328519	     -7.61215371	     65.50040702	     46.59017246	      0.00000000	      0.00000000
     40.98942857	     -2.24439371	     -5.10765625	     -1.66043338	      1.06951595	      0.93590872	      0.41454130	     31.05606558	     -3.97512429	     -6.10210188	     43.86419307	     43.86419307	      0.19029123	     -9.31840803	     -1.38449036	     12.23725737	     -6.44489970	     -8.44849422	     21.48120869	     21.48120869	     12.90633003	    -12.36000597	     -1.62582355	    -12.21100061	      6.08368026	      0.54221417	     -3.89798663	    -12.71065000	     -5.24213784	     24.98660809	     46.91503840	      0.00000000	      0.00000000	     19.43952975	    -18.50972361	     -7.84473660	     66.32635398	     46.63138208	      0.00000000	      0.00000000
     41.00257143	     -2.32280859	     -5.06216389	     -2.06784924	      1.06887655	      0.93593031	      0.41507585	     30.37692012	     -3.83894812	     -6.73149647	     39.07137045	     39.07137045	     -0.09319654	     -7.80696541	     -3.61156043	     11.74748907	     -6.44686038	     -8.86277299	     21.16806154	     21.16806154	     12.97685102	    -12.31407895	     -1.93900200	    -12.38674463	      6.07265598	      0.38509016	     -4.84829669	    -12.68469079	     -6.79540481	     25.47179966	     46.98715211	      0.00000000	      0.00000000	     19.32444811	    -19.07601623	     -8.34790278	     69.58423299	     46.77310587	      0.00000000	      0.00000000
     41.01571429	     -2.54357856	     -5.06815174	     -2.43733827	      1.06828371	      0.93573519	      0.41580475	     29.74852778	     -3.50606572	     -7.25277613	     34.26330077	     34.26330077	      0.28603642	     -6.11459296	     -3.21392528	     11.43668611	     -6.49641403	     -9.14024504	     20.88492459	     20.88492459	     13.12142336	    -12.34997580	     -1.98614386	    -12.25718537	      6.15677864	      0.41809584	     -5.63110038	    -12.78808942	     -6.93713809	     25.21507944	     46.99813178	      0.00000000	      0.00000000	     20.06919049	    -19.35381839	     -8.54810856	     70.32382139	     46.81277938	      0.00000000	      0.00000000
     41.02885714	     -2.71355180	     -5.00540924	     -2.80666365	      1.06789034	      0.93547889	      0.41672739	     28.94318652	     -3.21038798	     -7.85834673	     29.45941297	     29.45941297	      0.63526315	     -4.05055046	     -2.66252410	     11.04650644	     -6.49295508	     -9.48914182	     20.59348453	     20.59348453	     13.26611360	    -12.30397977	     -2.09047017	    -12.18405542	      6.13414268	      0.53855821	     -6.41038789	    -12.84719462	     -7.09496217	     25.12272466	     47.00249815	      0.00000000	      0.00000000	     20.74860430	    -19.59516509	     -8.73032208	     71.33055728	     46.85550652	      0.00000000	      0.00000000
     41.04200000	     -2.78798246	     -4.82555163	     -3.15960509	      1.06772363	      0.93519224	      0.41769892	     28.00843358	     -3.07841695	     -8.70965420	     24.96819327	     24.96819327	      1.12285217	     -1.30242796	     -1.66784242	     10.50277559	     -6.36713232	     -9.97676892	     20.22007314	     20.22007314	     13.39507664	    -12.06080879	     -2.41581811	    -12.25349269	      5.97315285	      0.67291253	     -7.28887836	    -12.83695200	     -7.49388104	     25.56522457	     46.99261565	      0.00000000	      0.00000000	     21.22485435	    -19.82414438	     -8.96359601	     72.96684698	     46.92509325	      0.00000000	      0.00000000
     41.05514286	     -2.95558879	     -4.73177205	     -3.44801640	      1.06770838	      0.93470052	      0.41891156	     27.13548225	     -2.68987730	     -9.19889529	     20.80476495	     20.80476495	      1.33808086	      0.42386952	     -0.38561905	     10.12454466	     -6.33622518	    -10.25051007	     19.97033445	     19.97033445	     13.54723535	    -12.04635215	     -2.60163379	    -12.07955562	      5.92906795	      0.64854138	     -7.89506689	    -12.85215265	     -7.64446152	     25.68971307	     46.98705939	      0.00000000	      0.00000000	     21.67859446	    -20.09041943	     -9.11286770	     73.73129594	     46.96107797	      0.00000000	      0.00000000
     41.06828571	     -3.09985113	     -4.50657617	     -3.73036806	      1.06785815	      0.93409559	      0.42025966	     26.40352982	     -2.47372313	     -9.69879236	     17.44826570	     17.44826570	      1.60306823	      2.15173196	      0.97405683	      9.68310782	     -6.16773428	    -10.61168969	     19.66036224	     19.66036224	     13.70706712	    -11.91656355	     -2.83357557	    -11.91674216	      5.71497015	      0.65208540	     -8.41187692	    -12.75785524	     -7.76474738	     25.87429084	     46.97754079	      0.00000000	      0.00000000	     22.14979906	    -20.30905716	     -9.26008221	     74.49373611	     46.99571582	      0.00000000	      0.00000000
     41.08142857	     -3.10733513	     -4.38235531	     -3.98709003	      1.06828109	      0.93384230	      0.42168222	     25.89268508	     -2.34836574	    -10.71094377	     15.57368506	     15.57368506	      3.76195129	      4.56607394	      7.44449903	      8.96773910	     -6.10062011	    -11.02474990	     19.12512572	     19.12512572	     13.47578210	    -11.77297157	     -3.97310527	    -11.94586276	      5.63329842	      0.63207528	     -9.35510347	    -12.77886631	     -8.57454751	     27.66708498	     46.89760323	      0.00000000	      0.00000000	     22.17942832	    -20.50710930	     -9.71916631	     76.00111526	     47.13330701	      0.00000000	      0.00000000
     41.09457143	     -3.16037366	     -4.20113174	     -4.19250611	      1.06888536	      0.93342422	      0.42327725	     25.30214063	     -2.14989133	    -11.12243349	     13.88178718	     13.88178718	      3.80853017	      5.30911331	      8.03134147	      8.36082905	     -5.96080709	    -11.29389172	     18.72765352	     18.72765352	     13.66990737	    -11.61069215	     -4.06335914	    -11.78277002	      5.47749498	      0.64711579	     -9.57502370	    -12.69592996	     -8.58425665	     27.62288626	     46.89097567	      0.00000000	      0.00000000	     22.55987202	    -20.55165764	     -9.77031099	     76.25595227	     47.15377200	      0.00000000	      0.00000000
     41.10771429	     -3.20043285	     -4.02034304	     -4.37041951	      1.06968023	      0.93304300	      0.42497570	     24.83926537	     -2.02647581	    -11.50173277	     13.07653211	     13.07653211	      3.89002032	      5.76794050	      8.36334260	      7.69872554	     -5.82391392	    -11.59752684	     18.26711294	     18.26711294	     13.84881003	    -11.34493503	     -4.20249741	    -11.59525796	      5.32716745	      0.63159792	     -9.71013425	    -12.60860864	     -8.61763901	     27.71649910	     46.88168456	      0.00000000	      0.00000000	     22.82158403	    -20.59912660	     -9.85647512	     76.49167023	     47.17419031	      0.00000000	      0.00000000
     41.12085714	     -3.17229011	     -3.88421347	     -4.51934710	      1.07074681	      0.93277465	      0.42681819	     24.39384186	     -1.92520679	    -11.80865391	     13.02769533	     13.02769533	      3.96851122	      5.91317118	      8.34582168	      6.90498917	     -5.73278562	    -11.91660622	     17.73293135	     17.73293135	     14.02810659	    -10.97661977	     -4.40691657	    -11.44792668	      5.23573917	      0.59226145	     -9.77141398	    -12.55599232	     -8.68193877	     27.94285657	     46.86804363	      0.00000000	      0.00000000	     22.93972891	    -20.60246693	     -9.98545061	     76.67132864	     47.19772016	      0.00000000	      0.00000000
     41.13400000	     -3.15603598	     -3.74508362	     -4.62474497	      1.07202578	      0.93239958	      0.42875194	     24.00547163	     -1.87144982	    -11.91763640	     13.53455061	     13.53455061	      4.00045542	      5.68134350	      7.88699053	      6.12966378	     -5.64265960	    -12.20752966	     17.22051328	     17.22051328	     14.21817151	    -10.60744802	     -4.61157590	    -11.23283612	      5.15075520	      0.51743856	     -9.73113935	    -12.48960758	     -8.74423781	     28.23914979	     46.85206395	      0.00000000	      0.00000000	     22.94275535	    -20.57150646	    -10.13072820	     76.74755198	     47.21955968	      0.00000000	      0.00000000
